<?xml version="1.0" standalone="no"?>
<!DOCTYPE svg PUBLIC "-//W3C//DTD SVG 20010904//EN"
 "http://www.w3.org/TR/2001/REC-SVG-20010904/DTD/svg10.dtd">
<svg version="1.0" xmlns="http://www.w3.org/2000/svg"
 width="500.000000pt" height="500.000000pt" viewBox="0 0 500.000000 500.000000"
 preserveAspectRatio="xMidYMid meet">

<g transform="translate(0.000000,500.000000) scale(0.100000,-0.100000)"
fill="#000000" stroke="none">
<path d="M2315 4984 c-347 -34 -623 -109 -899 -244 -828 -405 -1369 -1231
-1403 -2140 -19 -534 118 -1024 412 -1470 101 -154 158 -224 294 -364 391
-401 864 -644 1429 -733 150 -24 554 -24 704 0 564 89 1041 335 1434 739 189
195 321 380 442 623 351 702 348 1513 -7 2225 -233 465 -635 867 -1101 1100
-254 127 -484 201 -765 246 -87 13 -458 26 -540 18z m52 -530 c-18 -50 -19
-60 -7 -107 16 -66 57 -147 128 -256 78 -121 101 -181 102 -265 0 -110 -14
-144 -125 -301 -57 -81 -46 -94 42 -45 29 17 59 30 67 30 23 0 36 -33 36 -89
0 -45 -3 -52 -27 -65 -43 -22 -76 -64 -128 -161 -53 -102 -78 -133 -109 -137
-20 -3 -21 -9 -26 -183 -4 -147 -8 -187 -23 -217 -44 -87 -148 -99 -246 -28
-64 47 -124 154 -161 290 -23 82 -38 125 -63 180 -121 269 -68 476 167 661
153 120 196 172 196 235 0 22 -3 25 -22 20 -13 -3 -31 -6 -40 -6 -15 0 -15 -4
-6 -31 16 -45 -2 -79 -42 -79 -40 0 -70 31 -70 73 0 40 15 57 51 57 l28 0 -15
36 c-14 32 -13 38 1 60 22 35 60 31 100 -9 40 -40 59 -102 75 -239 l11 -97
-45 -188 c-24 -103 -49 -220 -55 -260 -18 -115 -13 -276 15 -483 11 -90 -4
-52 -31 74 -54 257 -50 416 16 680 23 87 43 184 46 215 l5 56 -28 -33 c-15
-19 -45 -50 -68 -70 -123 -108 -216 -213 -253 -284 -37 -72 -37 -75 -38 -188
0 -78 5 -126 14 -149 l15 -34 25 54 c21 44 31 55 54 57 98 11 220 -253 152
-328 -24 -26 -69 -23 -114 9 -61 44 -66 21 -17 -82 52 -113 118 -158 198 -136
70 18 74 33 82 326 6 235 15 315 30 273 3 -8 10 -27 16 -43 13 -35 34 -43 64
-24 44 29 56 74 49 179 -5 88 -4 99 20 151 14 30 43 82 64 114 103 154 100
183 -40 391 -42 62 -85 138 -97 169 -42 113 -36 234 13 268 34 24 36 18 14
-41z m211 -35 c-32 -92 24 -199 222 -429 84 -97 211 -266 298 -396 59 -88 97
-162 121 -237 17 -51 17 -210 0 -267 -43 -148 -196 -299 -354 -351 -67 -22
-181 -34 -232 -24 -37 7 -35 8 77 44 138 44 152 51 123 62 -18 7 -21 16 -21
68 0 57 17 96 32 73 3 -6 -2 -13 -11 -16 -12 -5 -13 -10 -5 -18 8 -8 15 -8 27
2 23 19 18 1 -10 -32 -42 -49 -34 -61 33 -52 65 7 149 60 216 134 72 80 110
227 87 337 -27 132 -97 232 -493 706 -21 26 -44 45 -49 42 -5 -4 -9 -25 -9
-49 0 -46 32 -104 91 -166 222 -230 276 -341 286 -590 4 -101 2 -122 -17 -172
-36 -96 -94 -133 -162 -104 -13 6 -24 -9 -56 -76 -42 -89 -61 -112 -105 -122
-90 -21 -236 103 -237 202 0 27 35 97 94 189 24 38 55 91 68 118 90 180 115
437 54 551 -34 64 -50 158 -37 216 9 37 6 50 -18 103 -42 90 -54 134 -55 196
-1 57 14 89 40 89 10 0 11 -6 2 -31z m-181 -631 c-3 -8 -6 -5 -6 6 -1 11 2 17
5 13 3 -3 4 -12 1 -19z m61 6 c-4 -21 -48 -52 -48 -34 0 6 9 14 21 17 12 3 18
11 15 19 -3 8 -1 14 5 14 6 0 9 -7 7 -16z m-93 -161 c16 -16 16 -17 -1 -30
-29 -21 -54 -16 -54 10 0 40 26 50 55 20z m-21 -123 c5 -17 4 -20 -2 -10 -5 8
-13 26 -16 40 -5 17 -4 20 2 10 5 -8 13 -26 16 -40z m-366 -20 c35 -22 45 -60
14 -60 -10 0 -31 -13 -47 -30 -16 -16 -33 -30 -39 -30 -5 0 3 13 19 30 24 25
26 30 12 36 -24 9 -22 74 2 74 3 0 21 -9 39 -20z m265 -78 c12 -2 17 4 18 20
1 17 3 18 6 6 2 -10 11 -18 19 -18 11 0 14 6 9 23 -5 17 -4 19 4 7 21 -29 12
-49 -26 -59 -21 -6 -40 -7 -43 -3 -14 17 -28 61 -22 67 4 4 9 -4 12 -17 3 -12
14 -24 23 -26z m-248 -52 c-8 -14 -72 -24 -92 -14 -13 6 -4 10 32 14 28 4 54
8 58 8 5 1 6 -2 2 -8z m448 -513 c30 -24 31 -52 2 -91 -13 -18 -15 -18 -49 4
-41 25 -42 27 -22 75 17 41 31 43 69 12z m55 -165 c26 -17 25 -11 7 -55 -20
-48 -30 -52 -70 -27 -35 22 -35 23 -13 83 11 30 29 30 76 -1z m1530 -211 c27
-23 27 -25 1 -61 l-22 -29 -33 25 -33 26 21 29 c25 34 35 35 66 10z m-3029
-15 l20 25 30 -22 c37 -27 38 -39 7 -68 l-24 -23 -31 23 -31 23 -23 -22 -23
-21 -29 23 -29 23 23 32 23 32 33 -26 34 -25 20 26z m1623 2 l31 -21 18 21
c21 27 27 27 63 -2 l29 -24 -22 -31 c-26 -36 -37 -38 -71 -11 -25 19 -25 19
-46 -1 -21 -19 -24 -20 -53 -5 -36 19 -39 41 -9 73 26 28 23 28 60 1z m-1102
-71 c33 -36 36 -50 15 -87 -31 -54 -14 -121 45 -173 31 -28 31 -29 24 -95 -3
-37 -8 -69 -10 -71 -1 -1 -13 4 -26 13 -17 12 -46 16 -116 16 -86 0 -95 2
-119 26 -14 14 -26 24 -28 22 -1 -2 -8 -13 -14 -25 -10 -20 -20 -23 -67 -23
-69 0 -108 20 -124 62 -29 79 -26 76 -43 36 -15 -37 -18 -38 -66 -38 -27 0
-61 4 -76 10 -24 9 -25 13 -19 47 11 60 25 78 94 126 44 30 64 50 62 62 -4 21
26 87 37 81 7 -5 18 -61 36 -176 9 -61 16 -65 102 -65 l78 0 5 36 c7 42 49
104 61 92 5 -5 5 -30 0 -59 -12 -61 1 -74 72 -74 46 0 49 1 43 23 -3 12 -11
53 -16 92 -6 38 -18 80 -26 93 -15 23 -15 28 7 74 20 43 24 47 31 28 4 -11 21
-35 38 -53z m215 -214 l6 -43 90 0 c49 0 89 4 89 8 0 17 -25 32 -52 32 -31 0
-33 3 -17 51 16 48 35 59 101 59 50 0 63 -4 84 -26 25 -24 28 -49 13 -104 -3
-12 9 -16 60 -18 35 -2 68 1 73 6 13 13 -9 157 -29 198 -15 29 -15 34 8 78 22
44 24 46 31 24 5 -13 25 -37 44 -53 l36 -30 -17 -43 c-14 -33 -16 -61 -12
-120 5 -77 -7 -166 -25 -189 -7 -9 -45 -13 -124 -13 -113 0 -115 0 -126 26
l-12 25 -13 -25 c-14 -26 -15 -26 -138 -26 -112 0 -125 2 -125 18 0 9 -5 94
-11 188 l-12 171 29 49 29 49 7 -125 c4 -69 9 -144 13 -167z m656 7 c2 -93 -1
-121 -15 -148 -10 -19 -20 -31 -24 -28 -10 10 -42 329 -35 351 3 11 15 40 26
65 l20 45 13 -85 c7 -47 14 -137 15 -200z m809 275 c0 -17 -42 -85 -53 -85
-24 -1 -168 -91 -161 -102 5 -8 64 -9 197 -5 104 3 200 2 213 -3 13 -5 35 -27
50 -50 23 -35 26 -47 21 -93 -3 -28 -11 -69 -17 -89 l-11 -38 -308 0 -308 0
-27 25 c-14 13 -29 38 -32 55 -8 38 -21 47 -29 20 -16 -49 -59 -61 -139 -39
-38 10 -38 11 -32 49 10 65 25 86 96 134 55 38 66 50 63 69 -2 12 6 38 18 57
l22 35 12 -50 c7 -27 17 -81 23 -119 6 -38 16 -74 22 -80 14 -14 580 -22 580
-8 0 28 -34 33 -244 35 -185 2 -218 4 -232 18 -25 26 -3 75 64 142 68 67 212
150 212 122z m799 -102 c8 -3 21 3 31 17 l17 23 32 -22 c36 -26 37 -28 10 -60
l-20 -25 -35 19 c-34 18 -35 18 -56 -3 l-21 -21 -29 20 c-34 24 -35 35 -6 66
20 21 23 22 42 8 12 -8 27 -18 35 -22z m-308 -168 c13 -19 36 -40 52 -46 37
-16 119 -6 132 16 5 10 18 27 28 39 l18 21 -5 -22 c-4 -13 -9 -32 -12 -43 -5
-17 -1 -20 30 -20 35 0 76 30 76 56 0 6 7 18 16 25 15 12 16 11 9 -11 -8 -26
-8 -29 -6 -46 1 -15 47 -35 65 -28 8 3 12 13 9 24 -3 10 3 31 12 46 16 28 16
27 11 -47 -5 -85 -27 -149 -51 -149 -9 0 -29 7 -46 15 -27 14 -31 14 -45 0
-19 -18 -13 -18 -157 -20 l-119 -3 -23 -48 c-48 -99 -72 -112 -140 -78 -28 14
-59 34 -70 46 l-20 20 42 -7 c48 -8 88 9 133 57 36 38 39 75 8 129 -21 37 -21
40 -5 74 9 19 21 35 26 35 4 0 19 -16 32 -35z m-2356 -265 c23 26 31 25 65 -3
l28 -24 -25 -32 -25 -32 -34 26 -33 25 -17 -25 c-16 -24 -17 -25 -46 -7 -41
23 -44 36 -16 71 l23 29 31 -24 c31 -23 32 -23 49 -4z m-825 -211 c7 12 11 13
24 2 22 -19 2 -45 -24 -31 -11 6 -21 5 -28 -2 -16 -16 -37 4 -29 27 6 13 10
13 27 3 17 -11 22 -10 30 1z m729 -35 c-14 -14 -17 -14 -29 0 -10 13 -10 19 0
32 12 14 15 14 29 0 14 -15 14 -17 0 -32z m971 31 c12 -15 7 -45 -7 -45 -21 1
-35 19 -28 39 8 25 18 27 35 6z m639 3 c11 -10 14 -10 18 0 6 15 25 16 40 1
19 -19 -6 -50 -30 -38 -12 7 -22 7 -31 0 -9 -8 -18 -7 -31 3 -16 12 -17 16 -6
30 16 19 23 20 40 4z m-1420 -69 c-5 -9 -8 -45 -7 -80 1 -35 -1 -70 -5 -77 -5
-8 -33 -12 -77 -12 l-69 0 -9 32 -8 33 -15 -33 c-14 -32 -14 -32 -85 -32 l-71
0 -5 98 c-4 68 -2 102 7 115 11 15 13 12 19 -29 3 -26 6 -62 6 -80 l0 -34 58
0 c81 0 120 31 42 34 -33 1 -39 20 -17 50 13 18 16 18 71 -3 32 -12 62 -19 67
-16 10 7 12 -6 3 -29 -3 -9 -17 -16 -30 -16 -13 0 -24 -4 -24 -10 0 -6 27 -10
60 -10 l60 0 -6 28 c-3 15 -10 44 -15 64 -7 26 -6 45 1 58 11 20 11 19 34 -7
17 -20 22 -33 15 -44z m647 -46 l5 -53 60 0 c32 0 59 4 59 9 0 12 -45 22 -64
15 -24 -9 -20 21 8 53 l24 27 52 -32 c28 -18 60 -32 70 -32 31 0 9 -43 -27
-52 -16 -4 -40 -19 -53 -33 -20 -21 -32 -25 -81 -25 -45 0 -60 4 -68 18 -9 16
-10 16 -16 0 -5 -14 -22 -16 -101 -17 l-95 0 -11 30 c-10 30 -10 30 -25 9 -11
-15 -23 -20 -46 -18 -28 3 -32 7 -35 35 -3 28 2 35 37 58 22 15 41 36 43 48 6
38 26 29 33 -15 11 -65 21 -78 60 -78 30 0 37 5 52 38 l17 37 4 -37 c3 -35 6
-38 33 -38 l29 0 0 66 c0 36 6 75 13 87 11 21 12 20 14 -13 2 -19 6 -59 9 -87z
m303 -28 c0 -33 -4 -69 -8 -80 -7 -18 -8 -17 -14 5 -16 69 -19 161 -6 193 l14
32 7 -45 c3 -25 7 -72 7 -105z m275 73 c-5 -7 -9 -43 -9 -80 -1 -39 -6 -73
-13 -80 -16 -16 -94 -11 -108 8 -10 13 -12 13 -18 -1 -4 -10 -19 -15 -51 -15
l-45 0 0 48 c0 29 3 42 9 34 5 -8 23 -12 47 -10 l39 3 -3 49 c-5 80 8 89 27
16 15 -62 17 -65 49 -68 l32 -3 0 48 c0 27 -5 54 -12 61 -9 9 -9 17 1 36 l14
24 24 -29 c15 -17 21 -34 17 -41z m698 -28 c-3 -36 1 -49 17 -64 14 -13 21
-31 21 -58 0 -36 -12 -50 -25 -28 -3 6 -37 10 -76 10 l-69 0 0 99 c0 55 3 106
6 115 14 35 23 12 26 -61 l3 -78 38 -3 c42 -4 42 -5 22 72 -11 43 -12 62 -4
78 11 20 11 19 28 -8 11 -20 16 -44 13 -74z m335 85 c1 -5 -1 -16 -6 -24 -7
-10 -13 -11 -30 -2 -12 7 -26 9 -32 6 -5 -4 -17 -4 -26 -1 -11 5 -12 10 -4 19
12 15 93 17 98 2z m178 -40 c6 -5 19 -21 28 -35 l18 -25 -2 46 c-3 61 7 76 31
47 17 -22 17 -24 2 -42 -13 -14 -17 -36 -15 -97 l2 -79 -58 0 -57 0 4 35 c2
20 10 35 17 35 7 0 23 8 35 18 l23 19 -23 21 c-13 12 -27 19 -31 16 -18 -11
-59 28 -59 55 0 15 3 31 6 34 6 6 55 -24 79 -48z m-2359 -71 c5 -42 2 -68 -7
-85 -13 -23 -13 -23 -20 21 -10 60 -11 144 -2 166 6 15 8 13 15 -11 4 -17 11
-57 14 -91z m1213 -16 c1 -48 -3 -89 -7 -92 -5 -3 -14 35 -20 85 -8 68 -8 96
1 116 l12 26 6 -24 c4 -13 7 -63 8 -111z m447 111 c19 -18 21 -25 12 -42 -5
-11 -8 -37 -5 -59 3 -21 1 -54 -4 -73 l-10 -35 -107 1 c-111 0 -132 7 -133 43
0 21 0 21 -16 -1 -16 -24 -56 -30 -82 -14 -23 15 -4 59 38 89 25 17 41 38 45
56 9 41 22 22 33 -44 l8 -55 43 -3 c31 -2 42 0 42 11 0 8 9 25 20 38 l19 24 1
-37 c0 -37 1 -38 35 -38 32 0 35 3 35 28 0 15 -4 43 -10 62 -9 33 -6 70 8 70
3 0 16 -10 28 -21z m287 -106 c2 -73 -4 -105 -18 -92 -9 9 -17 168 -10 195 l7
29 10 -25 c5 -14 10 -62 11 -107z m566 0 c1 -51 -3 -93 -8 -93 -12 0 -25 162
-16 197 7 26 8 26 15 8 5 -11 9 -62 9 -112z m529 64 c-5 -10 -7 -36 -3 -58 4
-22 2 -54 -5 -74 -11 -34 -13 -35 -61 -35 -42 0 -51 3 -58 22 l-8 22 -12 -22
c-10 -19 -20 -22 -66 -22 -53 0 -55 1 -63 33 l-9 32 -17 -32 c-15 -30 -21 -33
-60 -33 -40 0 -46 -3 -65 -35 -18 -30 -25 -35 -58 -35 l-38 0 39 23 c47 26 56
44 24 49 -30 4 -35 37 -13 95 20 52 44 55 57 5 8 -31 10 -32 63 -32 54 0 79
14 54 31 -8 5 -24 8 -36 6 -28 -5 -32 23 -7 47 19 20 17 20 64 -4 22 -11 49
-20 60 -20 18 0 19 -3 10 -20 -6 -11 -20 -20 -30 -20 -11 0 -20 -4 -20 -10 0
-6 27 -10 60 -10 l61 0 -7 49 c-3 28 -3 63 1 78 l8 28 7 -25 c5 -14 8 -42 9
-62 2 -60 8 -68 56 -68 l43 0 -5 43 c-3 23 -10 50 -15 60 -5 10 -6 27 -3 38 6
19 7 19 30 -3 18 -17 21 -26 13 -41z m-3922 -97 c36 0 44 3 44 18 0 18 18 42
30 42 4 0 5 -13 2 -30 l-4 -30 66 0 c36 0 66 4 66 9 0 12 -26 21 -61 21 l-30
0 16 30 c19 37 44 38 93 5 20 -14 47 -25 59 -25 20 0 21 -2 11 -25 -7 -16 -19
-25 -34 -25 -13 0 -39 -13 -57 -30 -29 -25 -43 -30 -84 -30 -27 0 -55 6 -62
13 -11 10 -14 10 -18 0 -6 -16 -57 -17 -84 -3 -10 6 -19 20 -19 30 0 26 -11
25 -33 -1 -17 -20 -48 -19 -70 1 -16 15 4 51 44 77 21 14 39 33 39 43 0 42 16
26 28 -29 l13 -61 45 0z m3124 16 c0 -87 0 -87 -109 -84 -93 3 -96 4 -105 29
-5 14 -5 44 -1 65 l8 39 9 -32 9 -33 79 0 c44 0 80 3 79 8 0 4 -4 16 -8 27 -5
11 -4 28 2 39 9 19 10 19 23 1 8 -10 14 -37 14 -59z m-2136 42 c35 -49 8 -192
-39 -204 -12 -3 -37 -1 -56 4 -21 6 -26 11 -14 11 27 1 81 35 94 59 9 17 7 18
-14 15 -45 -9 -53 53 -14 115 17 28 24 28 43 0z m-574 -90 c0 -41 -31 -98 -56
-104 -13 -3 -32 1 -44 9 l-21 15 24 6 c33 8 67 40 67 62 0 11 -7 27 -15 38
-11 14 -12 24 -4 39 11 19 12 18 30 -9 10 -16 19 -41 19 -56z m-310 -99 c0 -4
-6 -12 -14 -18 -10 -9 -16 -8 -26 4 -10 12 -16 13 -26 4 -19 -15 -45 -4 -38
16 5 12 14 14 35 10 18 -4 29 -2 29 4 0 8 7 7 20 -1 11 -7 20 -16 20 -19z m99
-15 c-14 -14 -17 -14 -29 0 -10 13 -10 19 0 32 12 14 15 14 29 0 14 -15 14
-17 0 -32z m1109 34 c9 -9 15 -9 24 0 8 8 17 8 30 1 15 -8 16 -14 8 -30 -9
-16 -14 -17 -32 -8 -15 8 -22 8 -28 -1 -6 -9 -12 -9 -28 1 -16 10 -18 17 -11
31 11 21 20 23 37 6z m1090 0 c10 -10 15 -10 21 1 7 11 12 11 30 -1 18 -13 19
-17 7 -33 -12 -16 -16 -17 -30 -6 -13 11 -19 11 -31 1 -22 -19 -48 5 -34 31
11 22 20 24 37 7z m-1518 -236 c0 -13 -21 -21 -37 -14 -16 5 -17 24 -2 39 9 9
15 8 25 -2 8 -7 14 -18 14 -23z m2220 0 c0 -14 -25 -22 -39 -12 -10 6 -10 11
0 28 10 16 15 18 26 7 7 -8 13 -18 13 -23z m-901 -19 c-6 -7 -18 -13 -26 -13
-20 0 -28 27 -13 45 11 14 15 14 31 -1 14 -13 16 -20 8 -31z m741 37 c13 -7
21 -7 25 0 8 12 16 12 34 1 12 -8 12 -12 2 -25 -10 -12 -18 -13 -33 -5 -13 7
-23 7 -31 0 -17 -14 -41 3 -34 23 7 19 12 19 37 6z m-2306 -9 c5 -1 3 -8 -4
-16 -8 -10 -17 -12 -29 -6 -9 5 -23 6 -32 1 -8 -5 -21 -5 -29 1 -30 19 18 29
94 20z m360 -158 c1 -1 19 0 40 4 28 4 43 14 59 39 32 49 63 46 72 -7 7 -38
-8 -99 -24 -99 -4 0 -17 7 -30 17 -23 16 -25 15 -42 -5 -13 -17 -28 -22 -62
-22 l-44 0 -8 91 c-5 67 -3 99 7 122 13 31 13 30 21 -53 5 -47 10 -86 11 -87z
m276 119 l50 -48 0 42 c0 51 11 61 35 34 17 -19 17 -21 -1 -47 -14 -22 -18
-44 -16 -100 l2 -73 -55 0 -55 0 0 35 c0 30 4 37 35 49 19 8 35 19 35 24 0 14
-38 44 -48 38 -19 -11 -62 34 -62 65 0 42 22 37 80 -19z m166 -146 c-12 -61
-24 -40 -31 52 -5 62 -3 96 6 117 12 29 13 27 22 -52 5 -44 7 -97 3 -117z
m484 185 c0 -5 -8 -12 -17 -14 -11 -3 -7 -5 10 -6 31 -1 36 -16 8 -24 -28 -7
-44 7 -36 32 6 20 35 30 35 12z m99 -88 l1 -63 33 0 c27 0 37 6 47 28 l14 27
4 -27 c2 -16 7 -28 11 -28 5 0 29 16 54 35 25 19 57 35 71 35 28 0 58 -34 49
-56 -4 -10 4 -14 31 -14 29 0 36 4 36 19 0 10 7 24 15 31 13 11 15 8 15 -19 0
-30 2 -31 40 -31 45 0 44 -2 30 70 -6 30 -8 62 -4 72 5 18 7 17 31 -6 19 -19
23 -30 17 -48 -5 -13 -7 -43 -5 -68 1 -25 -2 -57 -8 -72 -10 -26 -15 -28 -66
-28 -34 0 -55 4 -55 11 0 8 -4 8 -14 0 -9 -7 -73 -11 -193 -10 l-181 1 -6 98
c-6 73 -4 103 6 119 12 19 13 19 20 3 3 -9 7 -45 7 -79z m820 -13 c1 -42 16
-60 48 -60 15 0 27 8 32 23 11 29 61 79 75 74 6 -2 12 -25 14 -50 l3 -47 50 0
c50 0 57 7 39 40 -10 19 -4 50 11 50 11 0 28 -64 24 -87 -2 -10 -6 -30 -10
-45 l-5 -28 -133 0 c-90 0 -137 4 -145 12 -9 9 -12 7 -12 -9 0 -11 -12 -32
-27 -47 -22 -22 -34 -26 -67 -24 -52 4 -73 35 -61 94 l8 39 9 -32 c10 -38 41
-50 85 -36 28 10 28 10 28 104 1 52 5 105 10 119 8 24 9 23 16 -15 4 -22 8
-56 8 -75z m-2069 43 c0 -95 5 -103 59 -103 57 0 63 5 49 36 -8 16 -8 31 -1
46 l10 23 13 -25 c13 -25 16 -122 5 -140 -4 -6 -39 -10 -79 -10 l-74 0 -7 94
c-4 52 -4 104 0 115 12 39 25 21 25 -36z m1814 -30 c7 -67 -1 -140 -15 -126
-12 12 -23 156 -15 189 10 40 22 16 30 -63z m-764 12 c7 -9 10 -27 6 -45 l-5
-30 49 0 c49 0 49 0 44 29 -3 16 -1 37 4 48 10 16 12 14 27 -20 11 -28 13 -50
8 -85 l-8 -47 -66 -3 c-65 -3 -67 -2 -87 29 l-20 32 -16 -32 c-28 -54 1 -91
70 -91 30 0 31 -14 2 -34 -32 -23 -65 -20 -93 9 -32 31 -32 68 0 124 30 52 31
59 6 63 -18 3 -18 5 -6 36 11 26 20 32 43 32 16 0 35 -7 42 -15z m-1128 -31
c4 -17 4 -50 0 -75 l-8 -44 -84 -3 c-77 -3 -87 -1 -102 19 -19 23 -24 64 -9
73 5 3 11 -1 15 -9 4 -11 23 -15 79 -15 41 0 77 3 80 6 3 4 2 15 -4 26 -12 22
-2 61 14 55 6 -2 15 -17 19 -33z m926 1 c25 -54 7 -169 -29 -191 -7 -4 -29 -7
-49 -5 -45 3 -65 21 -23 21 23 0 39 9 62 35 36 41 39 50 12 33 -48 -29 -66 47
-26 108 20 31 39 30 53 -1z m1638 -43 c6 -37 4 -42 -10 -36 -11 4 -16 1 -16
-11 0 -11 -7 -15 -22 -13 -32 4 -35 52 -8 97 18 29 23 32 35 20 8 -8 17 -33
21 -57z m-10 -96 c-9 -38 -34 -56 -74 -56 l-37 1 47 24 c25 14 50 34 53 46 9
28 19 16 11 -15z m-857 -29 c8 -10 7 -17 -1 -25 -26 -26 -60 -4 -38 23 15 18
24 19 39 2z"/>
<path d="M1941 3084 c-29 -37 -27 -68 6 -83 57 -26 110 28 84 85 -15 34 -63
33 -90 -2z"/>
<path d="M2712 3652 c1 -164 -45 -342 -122 -472 -72 -122 -77 -175 -22 -232
47 -51 127 -25 167 53 20 38 19 55 -5 79 -19 19 -22 19 -50 5 -37 -19 -37 -19
-44 9 -11 44 13 124 49 161 28 31 38 35 82 35 68 0 86 -21 91 -106 4 -52 8
-64 21 -64 31 0 71 53 83 112 15 70 -6 182 -52 273 -28 58 -162 228 -187 239
-9 4 -12 -20 -11 -92z m143 -222 c3 -6 -1 -13 -9 -16 -9 -4 -16 -18 -16 -33 0
-15 -3 -31 -6 -34 -7 -7 -64 50 -64 64 0 14 16 11 30 -6 18 -21 27 -19 34 10
7 26 20 32 31 15z"/>
<path d="M1930 3460 c0 -5 7 -10 15 -10 8 0 15 5 15 10 0 6 -7 10 -15 10 -8 0
-15 -4 -15 -10z"/>
<path d="M1976 3462 c-3 -6 -1 -14 5 -17 15 -10 25 3 12 16 -7 7 -13 7 -17 1z"/>
<path d="M1044 2228 c-5 -8 -21 -23 -36 -33 -40 -25 -35 -37 15 -33 35 2 43 7
45 25 2 12 -1 30 -6 39 -8 15 -11 15 -18 2z"/>
<path d="M2692 2199 l-32 -29 40 0 c36 0 40 3 40 24 0 36 -11 38 -48 5z"/>
<path d="M1796 1575 c-19 -15 -19 -15 2 -15 13 0 22 6 22 15 0 18 0 18 -24 0z"/>
<path d="M3885 1550 c-3 -5 1 -10 10 -10 9 0 13 5 10 10 -3 6 -8 10 -10 10 -2
0 -7 -4 -10 -10z"/>
<path d="M2875 1570 c-3 -5 3 -10 14 -10 12 0 21 5 21 10 0 6 -6 10 -14 10 -8
0 -18 -4 -21 -10z"/>
<path d="M4085 1560 c-3 -5 1 -13 10 -16 22 -9 29 1 11 15 -10 8 -16 9 -21 1z"/>
<path d="M512 1578 c-17 -17 -15 -28 6 -28 24 0 32 8 25 26 -6 17 -15 18 -31
2z"/>
<path d="M1576 1563 c-11 -11 -6 -23 9 -23 8 0 15 4 15 9 0 13 -16 22 -24 14z"/>
<path d="M1746 1082 c-3 -6 -1 -14 5 -17 14 -9 20 -2 10 14 -6 8 -11 9 -15 3z"/>
<path d="M2815 1060 c-4 -6 8 -10 29 -10 20 0 36 5 36 10 0 6 -13 10 -29 10
-17 0 -33 -4 -36 -10z"/>
<path d="M3583 1083 c-17 -6 -16 -30 0 -36 20 -8 41 9 34 27 -7 16 -13 18 -34
9z"/>
<path d="M2195 1061 c-7 -12 12 -24 25 -16 11 7 4 25 -10 25 -5 0 -11 -4 -15
-9z"/>
<path d="M3827 1064 c-14 -14 -7 -25 13 -22 12 2 21 8 21 13 0 12 -24 18 -34
9z"/>
</g>
</svg>
